<?xml version="1.0" standalone="no"?>
<!DOCTYPE svg PUBLIC "-//W3C//DTD SVG 20010904//EN"
 "http://www.w3.org/TR/2001/REC-SVG-20010904/DTD/svg10.dtd">
<svg version="1.0" xmlns="http://www.w3.org/2000/svg"
 width="96.000000pt" height="96.000000pt" viewBox="0 0 96.000000 96.000000"
 preserveAspectRatio="xMidYMid meet">

<g transform="translate(0.000000,96.000000) scale(0.100000,-0.100000)"
fill="#000000" stroke="none">
<path d="M451 758 c27 -78 52 -144 54 -147 7 -7 8 -5 65 109 l53 105 54 -109
c30 -59 56 -106 58 -104 2 2 27 68 54 146 l50 142 -219 0 -219 0 50 -142z"/>
<path d="M152 548 c-22 -11 -39 -49 -33 -78 14 -74 131 -61 131 14 0 52 -52
85 -98 64z"/>
<path d="M436 539 c-65 -52 1 -148 75 -108 50 26 43 99 -12 118 -39 14 -32 15
-63 -10z"/>
<path d="M726 539 c-65 -52 1 -148 75 -108 50 26 41 99 -14 119 -37 12 -30 14
-61 -11z"/>
<path d="M570 409 c-26 -30 -45 -42 -75 -46 -30 -5 -49 -16 -77 -48 -21 -24
-66 -57 -101 -75 -62 -33 -63 -33 -90 -15 -33 21 -56 61 -61 107 -2 17 -8 34
-13 35 -18 6 -53 -105 -53 -168 0 -54 3 -63 34 -97 34 -36 36 -37 108 -37 67
0 81 4 173 48 130 64 164 75 260 93 44 7 91 22 105 32 33 24 63 86 55 112 -5
17 -12 19 -44 14 -49 -8 -107 17 -129 56 -23 41 -50 38 -92 -11z"/>
</g>
</svg>
