<?xml version="1.0" encoding="UTF-8"?>
<!DOCTYPE svg PUBLIC "-//W3C//DTD SVG 1.1//EN" "http://www.w3.org/Graphics/SVG/1.1/DTD/svg11.dtd">
<svg xmlns="http://www.w3.org/2000/svg" version="1.1" width="400px" height="400px" style="shape-rendering:geometricPrecision; text-rendering:geometricPrecision; image-rendering:optimizeQuality; fill-rule:evenodd; clip-rule:evenodd" xmlns:xlink="http://www.w3.org/1999/xlink">
<g><path style="opacity:0.999" fill="#0b0b0b" d="M 182.5,20.5 C 275.09,16.6905 337.59,58.0238 370,144.5C 390.516,218.631 373.349,282.465 318.5,336C 278.89,369.753 232.89,384.086 180.5,379C 160.863,377.409 142.196,372.409 124.5,364C 49.8029,324.462 15.3029,262.295 21,177.5C 33.0118,104.62 73.5118,55.1196 142.5,29C 155.821,25.4375 169.154,22.6042 182.5,20.5 Z"/></g>
<g><path style="opacity:1" fill="#f4f4f4" d="M 185.5,29.5 C 256.558,26.7733 310.724,55.4399 348,115.5C 379.682,182.196 374.682,245.863 333,306.5C 292.733,353.492 241.566,374.325 179.5,369C 112.021,358.509 65.5211,321.675 40,258.5C 20.7398,199.741 29.0731,145.408 65,95.5C 96.6743,57.9144 136.841,35.9144 185.5,29.5 Z"/></g>
<g><path style="opacity:1" fill="#020202" d="M 181.5,37.5 C 253.942,33.1281 308.109,62.1281 344,124.5C 368.068,176.571 367.068,228.238 341,279.5C 309.029,333.67 261.363,361.67 198,363.5C 137.025,359.864 90.6914,332.198 59,280.5C 31.4105,226.24 31.7438,172.24 60,118.5C 88.1353,72.8558 128.635,45.8558 181.5,37.5 Z"/></g>
<g><path style="opacity:1" fill="#f7f7f7" d="M 195.5,63.5 C 196.462,67.1461 198.795,68.3128 202.5,67C 203.823,66.1841 204.489,65.0174 204.5,63.5C 205.487,58.6946 205.821,53.6946 205.5,48.5C 207.5,48.5 209.5,48.5 211.5,48.5C 211.5,54.1667 211.5,59.8333 211.5,65.5C 210.214,71.8353 206.214,74.8353 199.5,74.5C 192.602,74.572 188.935,71.2387 188.5,64.5C 188.5,59.1667 188.5,53.8333 188.5,48.5C 190.5,48.5 192.5,48.5 194.5,48.5C 194.179,53.6946 194.513,58.6946 195.5,63.5 Z"/></g>
<g><path style="opacity:1" fill="#959595" d="M 211.5,65.5 C 211.5,59.8333 211.5,54.1667 211.5,48.5C 209.5,48.5 207.5,48.5 205.5,48.5C 205.821,53.6946 205.487,58.6946 204.5,63.5C 204.5,58.1667 204.5,52.8333 204.5,47.5C 207.167,47.5 209.833,47.5 212.5,47.5C 212.823,53.69 212.49,59.69 211.5,65.5 Z"/></g>
<g><path style="opacity:1" fill="#f0f0f0" d="M 232.5,51.5 C 238.717,53.6265 245.05,55.4598 251.5,57C 253.698,58.67 254.032,60.67 252.5,63C 249.723,63.0511 247.057,63.2178 244.5,63.5C 242.751,68.9998 241.085,74.4998 239.5,80C 237.182,80.3423 235.015,79.8423 233,78.5C 234.633,72.2952 236.133,65.9619 237.5,59.5C 231.802,59.3251 230.136,56.6584 232.5,51.5 Z"/></g>
<g><path style="opacity:1" fill="#8e8e8e" d="M 195.5,63.5 C 194.513,58.6946 194.179,53.6946 194.5,48.5C 192.5,48.5 190.5,48.5 188.5,48.5C 188.5,53.8333 188.5,59.1667 188.5,64.5C 187.511,59.0247 187.178,53.358 187.5,47.5C 190.167,47.5 192.833,47.5 195.5,47.5C 195.5,52.8333 195.5,58.1667 195.5,63.5 Z"/></g>
<g><path style="opacity:1" fill="#f3f3f3" d="M 156.5,53.5 C 162.866,59.8292 169.033,66.4959 175,73.5C 175.688,74.3317 175.521,74.9984 174.5,75.5C 171.489,77.9096 168.823,77.7429 166.5,75C 160.339,73.6943 156.672,76.0277 155.5,82C 153.782,82.346 152.115,82.846 150.5,83.5C 149.996,74.1985 149.996,64.8652 150.5,55.5C 152.786,55.405 154.786,54.7384 156.5,53.5 Z"/></g>
<g><path style="opacity:1" fill="#0d0d0d" d="M 158.5,64.5 C 159.476,65.8149 160.476,67.1482 161.5,68.5C 160.234,69.3624 158.901,70.0291 157.5,70.5C 157.205,68.2646 157.539,66.2646 158.5,64.5 Z"/></g>
<g><path style="opacity:1" fill="#636363" d="M 158.5,64.5 C 157.539,66.2646 157.205,68.2646 157.5,70.5C 156.203,68.3066 156.203,65.9732 157.5,63.5C 158.107,63.6236 158.44,63.9569 158.5,64.5 Z"/></g>
<g><path style="opacity:1" fill="#f4f4f4" d="M 273.5,66.5 C 275.649,67.7476 277.649,69.2476 279.5,71C 277.709,73.414 276.043,75.914 274.5,78.5C 277.009,79.9213 279.343,81.5879 281.5,83.5C 283.225,80.6838 285.392,78.3504 288,76.5C 289.795,77.2954 291.295,78.4621 292.5,80C 288.402,87.2573 283.735,94.0906 278.5,100.5C 276.246,99.8763 274.579,98.543 273.5,96.5C 274.971,93.864 276.637,91.364 278.5,89C 276.167,87.5 273.833,86 271.5,84.5C 269.335,86.8252 267.168,89.1586 265,91.5C 262.88,90.527 261.047,89.1936 259.5,87.5C 264.425,80.6434 269.092,73.6434 273.5,66.5 Z"/></g>
<g><path style="opacity:1" fill="#f3f3f3" d="M 115.5,73.5 C 127.834,72.0449 134,77.3782 134,89.5C 129.533,100.316 122.033,103.149 111.5,98C 103.941,88.4171 105.274,80.2504 115.5,73.5 Z"/></g>
<g><path style="opacity:1" fill="#0d0d0d" d="M 116.5,80.5 C 123.625,79.4656 127.125,82.4656 127,89.5C 120.614,95.6299 116.114,94.4632 113.5,86C 113.863,83.8077 114.863,81.9744 116.5,80.5 Z"/></g>
<g><path style="opacity:1" fill="#060606" d="M 201.5,112.5 C 196.56,109.23 192.227,105.23 188.5,100.5C 192.298,97.2039 195.964,93.7039 199.5,90C 200.167,89.3333 200.833,89.3333 201.5,90C 205.167,93.6667 208.833,97.3333 212.5,101C 208.63,104.702 204.963,108.536 201.5,112.5 Z"/></g>
<g><path style="opacity:1" fill="#9e9e9e" d="M 265.5,125.5 C 264.833,125.5 264.5,125.833 264.5,126.5C 260.169,123.002 256.336,119.002 253,114.5C 248.984,118.348 245.151,122.348 241.5,126.5C 245.233,130.227 248.566,134.227 251.5,138.5C 251.5,138.833 251.5,139.167 251.5,139.5C 247.52,135.855 243.52,132.189 239.5,128.5C 235.682,131.818 232.015,135.318 228.5,139C 227.833,139.667 227.167,139.667 226.5,139C 230.5,135 234.5,131 238.5,127C 234.652,122.984 230.652,119.151 226.5,115.5C 222.348,119.151 218.348,122.984 214.5,127C 216.615,127.424 217.448,128.591 217,130.5C 215.352,129.283 213.519,128.45 211.5,128C 211.833,127.667 212.167,127.333 212.5,127C 208.572,122.564 204.239,118.731 199.5,115.5C 200.551,114.778 201.218,113.778 201.5,112.5C 204.963,108.536 208.63,104.702 212.5,101C 208.833,97.3333 205.167,93.6667 201.5,90C 200.833,89.3333 200.167,89.3333 199.5,90C 195.964,93.7039 192.298,97.2039 188.5,100.5C 187.833,99.8333 187.167,99.1667 186.5,98.5C 190.981,96.5409 194.815,93.5409 198,89.5C 198.483,88.552 198.649,87.552 198.5,86.5C 204.306,89.621 209.306,93.9544 213.5,99.5C 216.985,96.516 220.318,93.3493 223.5,90C 224.167,89.3333 224.833,89.3333 225.5,90C 221.984,93.3486 218.651,96.8486 215.5,100.5C 219.151,104.652 222.984,108.652 227,112.5C 230.833,108.667 234.667,104.833 238.5,101C 235.667,98.1667 232.833,95.3333 230,92.5C 229.333,91.8333 229.333,91.1667 230,90.5C 233.632,93.1298 236.965,96.1298 240,99.5C 241.333,98.1667 242.667,96.8333 244,95.5C 243.333,97.5 242.667,99.5 242,101.5C 245.667,105.167 249.333,108.833 253,112.5C 255.667,109.833 258.333,107.167 261,104.5C 261.667,105.167 261.667,105.833 261,106.5C 258.65,108.683 256.483,111.016 254.5,113.5C 258.189,117.52 261.855,121.52 265.5,125.5 Z"/></g>
<g><path style="opacity:1" fill="#030303" d="M 238.5,102.5 C 243.088,105.745 247.421,109.412 251.5,113.5C 247.833,117.833 243.833,121.833 239.5,125.5C 235.833,121.5 232.167,117.5 228.5,113.5C 231.855,109.813 235.189,106.147 238.5,102.5 Z"/></g>
<g><path style="opacity:1" fill="#040404" d="M 212.5,102.5 C 217.088,105.745 221.421,109.412 225.5,113.5C 221.833,117.833 217.833,121.833 213.5,125.5C 209.993,121.494 206.327,117.66 202.5,114C 205.656,110.011 208.989,106.177 212.5,102.5 Z"/></g>
<g><path style="opacity:1" fill="#060606" d="M 199.5,115.5 C 204.239,118.731 208.572,122.564 212.5,127C 212.167,127.333 211.833,127.667 211.5,128C 213.519,128.45 215.352,129.283 217,130.5C 217.448,128.591 216.615,127.424 214.5,127C 218.348,122.984 222.348,119.151 226.5,115.5C 230.652,119.151 234.652,122.984 238.5,127C 234.5,131 230.5,135 226.5,139C 227.167,139.667 227.833,139.667 228.5,139C 232.015,135.318 235.682,131.818 239.5,128.5C 243.52,132.189 247.52,135.855 251.5,139.5C 247.854,143.812 243.854,147.812 239.5,151.5C 235.515,148.016 231.682,144.349 228,140.5C 227.833,140.833 227.667,141.167 227.5,141.5C 230.984,145.485 234.651,149.318 238.5,153C 236.046,154.74 234.546,156.907 234,159.5C 235.684,157.649 237.517,155.982 239.5,154.5C 243.652,158.151 247.652,161.984 251.5,166C 247.318,170.015 243.318,174.182 239.5,178.5C 242.943,183.446 246.943,187.946 251.5,192C 249.046,193.74 247.546,195.907 247,198.5C 248.684,196.649 250.517,194.982 252.5,193.5C 256.652,197.151 260.652,200.984 264.5,205C 260.318,209.015 256.318,213.182 252.5,217.5C 255.943,222.446 259.943,226.946 264.5,231C 262.046,232.74 260.546,234.907 260,237.5C 261.684,235.649 263.517,233.982 265.5,232.5C 269.833,236.167 273.833,240.167 277.5,244.5C 273.5,248.833 269.5,253.167 265.5,257.5C 269.151,261.652 272.984,265.652 277,269.5C 277.667,270.167 277.667,270.833 277,271.5C 273.333,275.167 269.667,278.833 266,282.5C 263.281,279.078 260.114,276.578 256.5,275C 259.777,277.766 262.443,280.933 264.5,284.5C 260.536,287.963 256.702,291.63 253,295.5C 248.984,291.652 245.151,287.652 241.5,283.5C 242.982,281.517 244.649,279.684 246.5,278C 243.907,278.546 241.74,280.046 240,282.5C 236.333,278.833 232.667,275.167 229,271.5C 229,270.167 229,268.833 229,267.5C 228.283,268.044 227.783,268.711 227.5,269.5C 223.036,265.537 218.702,261.37 214.5,257C 217.5,254 220.5,251 223.5,248C 222.833,247.333 222.167,247.333 221.5,248C 218.984,250.683 216.317,253.183 213.5,255.5C 209.348,251.849 205.348,248.016 201.5,244C 205.523,240.347 205.189,239.847 200.5,242.5C 195.811,239.847 195.477,240.347 199.5,244C 195.652,248.016 191.652,251.849 187.5,255.5C 177.476,247.516 177.142,248.016 186.5,257C 182.833,260.667 179.167,264.333 175.5,268C 174.552,268.483 173.552,268.649 172.5,268.5C 172.649,269.552 172.483,270.552 172,271.5C 168.629,274.703 165.462,278.036 162.5,281.5C 159.925,280.272 157.592,278.605 155.5,276.5C 154.479,277.002 154.312,277.668 155,278.5C 156.685,280.017 158.185,281.684 159.5,283.5C 156.167,287.5 152.5,291.167 148.5,294.5C 144.753,290.744 140.753,287.41 136.5,284.5C 138.893,280.598 141.893,277.098 145.5,274C 144.833,273.333 144.167,273.333 143.5,274C 140.952,276.885 138.118,279.385 135,281.5C 130.149,278.327 126.482,274.327 124,269.5C 127.5,266 131,262.5 134.5,259C 135.449,258.383 136.282,258.549 137,259.5C 136.689,258.065 136.855,256.732 137.5,255.5C 131.943,253.684 127.277,250.018 123.5,244.5C 127.167,240.167 131.167,236.167 135.5,232.5C 137.817,234.316 139.984,236.316 142,238.5C 141.107,235.564 139.274,233.064 136.5,231C 140.855,226.645 145.188,222.312 149.5,218C 145.188,213.688 140.855,209.355 136.5,205C 140.348,200.984 144.348,197.151 148.5,193.5C 150.817,195.316 152.984,197.316 155,199.5C 154.107,196.564 152.274,194.064 149.5,192C 153.881,187.955 157.881,183.622 161.5,179C 157.881,174.378 153.881,170.045 149.5,166C 153.348,161.984 157.348,158.151 161.5,154.5C 163.483,155.982 165.316,157.649 167,159.5C 166.454,156.907 164.954,154.74 162.5,153C 167.057,148.946 171.057,144.446 174.5,139.5C 170.682,135.182 166.682,131.015 162.5,127C 166.348,122.984 170.348,119.151 174.5,115.5C 178.652,119.151 182.652,122.984 186.5,127C 184.745,127.72 183.911,128.887 184,130.5C 189.264,126.417 194.431,121.417 199.5,115.5 Z"/></g>
<g><path style="opacity:1" fill="#030303" d="M 264.5,126.5 C 260.773,131.23 256.44,135.23 251.5,138.5C 248.566,134.227 245.233,130.227 241.5,126.5C 245.151,122.348 248.984,118.348 253,114.5C 256.336,119.002 260.169,123.002 264.5,126.5 Z"/></g>
<g><path style="opacity:1" fill="#fdfdfd" d="M 185.5,132.5 C 195.172,132.334 204.839,132.5 214.5,133C 217.902,134.4 220.736,136.567 223,139.5C 236.11,176.907 248.777,214.573 261,252.5C 262.995,267.504 256.495,274.337 241.5,273C 238.438,271.939 235.938,270.106 234,267.5C 230.058,257.457 226.558,247.291 223.5,237C 208.504,236.5 193.504,236.333 178.5,236.5C 176.111,247.051 172.945,257.384 169,267.5C 162.749,274.011 155.582,275.177 147.5,271C 141.298,264.576 139.798,257.076 143,248.5C 154.49,212.869 165.824,177.202 177,141.5C 179.362,137.973 182.196,134.973 185.5,132.5 Z"/></g>
<g><path style="opacity:1" fill="#bcbcbc" d="M 293.5,178.5 C 292.833,178.5 292.5,178.167 292.5,177.5C 295.963,173.536 299.63,169.702 303.5,166C 299.961,161.794 296.127,157.961 292,154.5C 288.011,157.656 284.177,160.989 280.5,164.5C 280.167,164.5 279.833,164.5 279.5,164.5C 283.145,160.52 286.811,156.52 290.5,152.5C 287.167,149.167 283.833,145.833 280.5,142.5C 279.635,141.417 278.635,141.251 277.5,142C 274.333,145.167 271.167,148.333 268,151.5C 267.517,152.448 267.351,153.448 267.5,154.5C 266.883,154.389 266.383,154.056 266,153.5C 261.833,157.667 257.667,161.833 253.5,166C 257.348,170.016 261.348,173.849 265.5,177.5C 269.52,173.811 273.52,170.145 277.5,166.5C 278.167,166.5 278.5,166.833 278.5,167.5C 273.676,170.979 270.01,175.313 267.5,180.5C 266.448,180.351 265.448,180.517 264.5,181C 260.833,184.667 257.167,188.333 253.5,192C 257.378,196.214 261.545,200.048 266,203.5C 269.637,199.697 273.471,196.031 277.5,192.5C 278.167,192.5 278.5,192.833 278.5,193.5C 274.147,196.854 270.48,200.854 267.5,205.5C 270.999,210.347 275.332,214.014 280.5,216.5C 280.5,216.833 280.5,217.167 280.5,217.5C 280.5,218.167 280.5,218.833 280.5,219.5C 280.167,219.5 279.833,219.5 279.5,219.5C 275.188,223.146 271.188,227.146 267.5,231.5C 270.999,236.347 275.332,240.014 280.5,242.5C 280.5,242.833 280.5,243.167 280.5,243.5C 283.447,248.282 287.28,252.282 292,255.5C 294.966,253.702 297.466,251.369 299.5,248.5C 299.833,248.667 300.167,248.833 300.5,249C 298.707,251.795 296.54,254.295 294,256.5C 294,257.833 294,259.167 294,260.5C 293.333,259.833 292.667,259.167 292,258.5C 288.333,262.167 284.667,265.833 281,269.5C 281.667,271.5 282.333,273.5 283,275.5C 281.667,274.167 280.333,272.833 279,271.5C 275.333,275.167 271.667,278.833 268,282.5C 267.837,284.387 268.671,285.887 270.5,287C 268.565,286.942 266.898,286.109 265.5,284.5C 265.167,284.5 264.833,284.5 264.5,284.5C 262.443,280.933 259.777,277.766 256.5,275C 260.114,276.578 263.281,279.078 266,282.5C 269.667,278.833 273.333,275.167 277,271.5C 277.667,270.833 277.667,270.167 277,269.5C 272.984,265.652 269.151,261.652 265.5,257.5C 269.5,253.167 273.5,248.833 277.5,244.5C 273.833,240.167 269.833,236.167 265.5,232.5C 263.517,233.982 261.684,235.649 260,237.5C 260.546,234.907 262.046,232.74 264.5,231C 259.943,226.946 255.943,222.446 252.5,217.5C 256.318,213.182 260.318,209.015 264.5,205C 260.652,200.984 256.652,197.151 252.5,193.5C 250.517,194.982 248.684,196.649 247,198.5C 247.546,195.907 249.046,193.74 251.5,192C 246.943,187.946 242.943,183.446 239.5,178.5C 243.318,174.182 247.318,170.015 251.5,166C 247.652,161.984 243.652,158.151 239.5,154.5C 237.517,155.982 235.684,157.649 234,159.5C 234.546,156.907 236.046,154.74 238.5,153C 234.651,149.318 230.984,145.485 227.5,141.5C 227.667,141.167 227.833,140.833 228,140.5C 231.682,144.349 235.515,148.016 239.5,151.5C 243.854,147.812 247.854,143.812 251.5,139.5C 251.5,139.167 251.5,138.833 251.5,138.5C 256.44,135.23 260.773,131.23 264.5,126.5C 264.5,125.833 264.833,125.5 265.5,125.5C 268.797,122.704 271.964,119.704 275,116.5C 273.593,119.945 271.259,122.945 268,125.5C 267.333,126.167 267.333,126.833 268,127.5C 271.667,131.167 275.333,134.833 279,138.5C 282,135.5 285,132.5 288,129.5C 286.593,132.945 284.259,135.945 281,138.5C 280.333,139.167 280.333,139.833 281,140.5C 284.667,144.167 288.333,147.833 292,151.5C 293.74,149.046 295.907,147.546 298.5,147C 296.649,148.684 294.982,150.517 293.5,152.5C 298.358,157.834 302.691,162.334 306.5,166C 307.743,167.154 308.743,168.488 309.5,170C 307.651,169.053 305.651,168.387 303.5,168C 299.963,171.369 296.629,174.869 293.5,178.5 Z"/></g>
<g><path style="opacity:1" fill="#070707" d="M 265.5,127.5 C 269.997,131.164 273.997,135.331 277.5,140C 273.652,144.016 269.652,147.849 265.5,151.5C 261.348,147.849 257.348,144.016 253.5,140C 257.704,135.964 261.704,131.798 265.5,127.5 Z"/></g>
<g><path style="opacity:1" fill="#050505" d="M 251.5,141.5 C 256.239,144.731 260.572,148.564 264.5,153C 260.652,157.016 256.652,160.849 252.5,164.5C 248.348,160.849 244.348,157.016 240.5,153C 244.37,149.298 248.037,145.464 251.5,141.5 Z"/></g>
<g><path style="opacity:1" fill="#050505" d="M 279.5,164.5 C 275.773,160.767 271.773,157.434 267.5,154.5C 267.351,153.448 267.517,152.448 268,151.5C 271.167,148.333 274.333,145.167 277.5,142C 278.635,141.251 279.635,141.417 280.5,142.5C 283.833,145.833 287.167,149.167 290.5,152.5C 286.811,156.52 283.145,160.52 279.5,164.5 Z"/></g>
<g><path style="opacity:1" fill="#050505" d="M 267.5,154.5 C 270.434,158.773 273.767,162.773 277.5,166.5C 273.52,170.145 269.52,173.811 265.5,177.5C 261.348,173.849 257.348,170.016 253.5,166C 257.667,161.833 261.833,157.667 266,153.5C 266.383,154.056 266.883,154.389 267.5,154.5 Z"/></g>
<g><path style="opacity:1" fill="#060606" d="M 292.5,177.5 C 287.742,173.747 283.742,169.414 280.5,164.5C 284.177,160.989 288.011,157.656 292,154.5C 296.127,157.961 299.961,161.794 303.5,166C 299.63,169.702 295.963,173.536 292.5,177.5 Z"/></g>
<g><path style="opacity:1" fill="#040404" d="M 251.5,167.5 C 256.239,170.731 260.572,174.564 264.5,179C 260.652,183.016 256.652,186.849 252.5,190.5C 248.301,187.136 244.635,183.302 241.5,179C 244.656,175.011 247.989,171.177 251.5,167.5 Z"/></g>
<g><path style="opacity:1" fill="#040404" d="M 278.5,167.5 C 282.809,170.885 286.809,174.719 290.5,179C 286.667,182.833 282.833,186.667 279,190.5C 275.571,186.561 271.737,183.228 267.5,180.5C 270.01,175.313 273.676,170.979 278.5,167.5 Z"/></g>
<g><path style="opacity:1" fill="#060606" d="M 267.5,180.5 C 270.434,184.773 273.767,188.773 277.5,192.5C 273.471,196.031 269.637,199.697 266,203.5C 261.545,200.048 257.378,196.214 253.5,192C 257.167,188.333 260.833,184.667 264.5,181C 265.448,180.517 266.448,180.351 267.5,180.5 Z"/></g>
<g><path style="opacity:1" fill="#0a0a0a" d="M 278.5,193.5 C 282.812,197.146 286.812,201.146 290.5,205.5C 287.145,209.187 283.811,212.853 280.5,216.5C 275.332,214.014 270.999,210.347 267.5,205.5C 270.48,200.854 274.147,196.854 278.5,193.5 Z"/></g>
<g><path style="opacity:1" fill="#a6a6a6" d="M 267.5,154.5 C 271.773,157.434 275.773,160.767 279.5,164.5C 279.833,164.5 280.167,164.5 280.5,164.5C 283.742,169.414 287.742,173.747 292.5,177.5C 292.5,178.167 292.833,178.5 293.5,178.5C 297.13,182.631 300.963,186.631 305,190.5C 307.064,187.726 309.564,185.893 312.5,185C 310.316,187.016 308.316,189.183 306.5,191.5C 308.5,193.833 310.5,196.167 312.5,198.5C 312.167,198.833 311.833,199.167 311.5,199.5C 309.833,197.833 308.167,196.167 306.5,194.5C 305.635,193.417 304.635,193.251 303.5,194C 299.18,197.559 296.013,201.726 294,206.5C 297.379,210.216 301.046,213.549 305,216.5C 307.631,215.037 309.798,213.037 311.5,210.5C 311.833,210.833 312.167,211.167 312.5,211.5C 310.5,213.833 308.5,216.167 306.5,218.5C 310.484,224.524 309.984,224.858 305,219.5C 300.984,223.348 297.151,227.348 293.5,231.5C 296.651,235.151 299.984,238.651 303.5,242C 302.833,242.667 302.167,242.667 301.5,242C 298.333,238.833 295.167,235.667 292,232.5C 288.298,236.37 284.464,240.037 280.5,243.5C 280.5,243.167 280.5,242.833 280.5,242.5C 283.811,238.853 287.145,235.187 290.5,231.5C 286.811,227.48 283.145,223.48 279.5,219.5C 279.833,219.5 280.167,219.5 280.5,219.5C 284.177,223.011 288.011,226.344 292,229.5C 296.302,226.365 300.136,222.699 303.5,218.5C 299.849,214.348 296.016,210.348 292,206.5C 288.298,210.37 284.464,214.037 280.5,217.5C 280.5,217.167 280.5,216.833 280.5,216.5C 283.811,212.853 287.145,209.187 290.5,205.5C 286.812,201.146 282.812,197.146 278.5,193.5C 278.5,192.833 278.167,192.5 277.5,192.5C 273.767,188.773 270.434,184.773 267.5,180.5C 271.737,183.228 275.571,186.561 279,190.5C 282.833,186.667 286.667,182.833 290.5,179C 286.809,174.719 282.809,170.885 278.5,167.5C 278.5,166.833 278.167,166.5 277.5,166.5C 273.767,162.773 270.434,158.773 267.5,154.5 Z"/></g>
<g><path style="opacity:1" fill="#060606" d="M 290.5,180.5 C 295.213,183.702 299.547,187.535 303.5,192C 299.6,195.9 295.767,199.733 292,203.5C 288.025,199.69 284.191,195.69 280.5,191.5C 283.855,187.813 287.189,184.147 290.5,180.5 Z"/></g>
<g><path style="opacity:1" fill="#090909" d="M 264.5,206.5 C 269.419,209.748 273.753,213.748 277.5,218.5C 274.136,222.699 270.302,226.365 266,229.5C 261.5,226.333 257.667,222.5 254.5,218C 257.656,214.011 260.989,210.177 264.5,206.5 Z"/></g>
<g><path style="opacity:1" fill="#070707" d="M 280.5,219.5 C 280.5,218.833 280.5,218.167 280.5,217.5C 284.464,214.037 288.298,210.37 292,206.5C 296.016,210.348 299.849,214.348 303.5,218.5C 300.136,222.699 296.302,226.365 292,229.5C 288.011,226.344 284.177,223.011 280.5,219.5 Z"/></g>
<g><path style="opacity:1" fill="#b2b2b2" d="M 186.5,98.5 C 187.167,99.1667 187.833,99.8333 188.5,100.5C 192.227,105.23 196.56,109.23 201.5,112.5C 201.218,113.778 200.551,114.778 199.5,115.5C 194.431,121.417 189.264,126.417 184,130.5C 183.911,128.887 184.745,127.72 186.5,127C 182.652,122.984 178.652,119.151 174.5,115.5C 170.348,119.151 166.348,122.984 162.5,127C 166.682,131.015 170.682,135.182 174.5,139.5C 171.057,144.446 167.057,148.946 162.5,153C 164.954,154.74 166.454,156.907 167,159.5C 165.316,157.649 163.483,155.982 161.5,154.5C 157.348,158.151 153.348,161.984 149.5,166C 153.881,170.045 157.881,174.378 161.5,179C 157.881,183.622 153.881,187.955 149.5,192C 152.274,194.064 154.107,196.564 155,199.5C 152.984,197.316 150.817,195.316 148.5,193.5C 144.348,197.151 140.348,200.984 136.5,205C 140.855,209.355 145.188,213.688 149.5,218C 145.188,222.312 140.855,226.645 136.5,231C 139.274,233.064 141.107,235.564 142,238.5C 139.984,236.316 137.817,234.316 135.5,232.5C 131.167,236.167 127.167,240.167 123.5,244.5C 127.277,250.018 131.943,253.684 137.5,255.5C 136.855,256.732 136.689,258.065 137,259.5C 136.282,258.549 135.449,258.383 134.5,259C 131,262.5 127.5,266 124,269.5C 126.482,274.327 130.149,278.327 135,281.5C 138.118,279.385 140.952,276.885 143.5,274C 144.167,273.333 144.833,273.333 145.5,274C 141.893,277.098 138.893,280.598 136.5,284.5C 135.508,284.328 134.842,284.662 134.5,285.5C 133.102,287.109 131.435,287.942 129.5,288C 131.019,286.649 132.352,285.149 133.5,283.5C 129.849,279.348 126.016,275.348 122,271.5C 120.26,273.954 118.093,275.454 115.5,276C 117.954,274.26 119.454,272.093 120,269.5C 116.333,265.833 112.667,262.167 109,258.5C 107.887,260.329 106.387,261.163 104.5,261C 106.329,259.887 107.163,258.387 107,256.5C 102.466,252.301 98.299,247.801 94.5,243C 99.5778,240.094 103.911,236.26 107.5,231.5C 103.849,227.348 100.016,223.348 96,219.5C 89.6831,226.191 89.1831,225.858 94.5,218.5C 86.5,209.167 87.1667,208.5 96.5,216.5C 100.5,213.167 104.167,209.5 107.5,205.5C 104.542,200.874 100.876,196.874 96.5,193.5C 94.3501,195.149 92.3501,196.982 90.5,199C 89.8333,199.667 89.1667,199.667 88.5,199C 90.8878,196.95 92.8878,194.616 94.5,192C 93.2237,189.719 91.5571,187.719 89.5,186C 90.1667,185.333 90.8333,185.333 91.5,186C 93.0175,187.685 94.6841,189.185 96.5,190.5C 100.151,187.349 103.651,184.016 107,180.5C 107.667,179.5 107.667,178.5 107,177.5C 103.833,174.333 100.667,171.167 97.5,168C 95.5826,168.027 93.916,168.861 92.5,170.5C 92.1667,170.167 91.8333,169.833 91.5,169.5C 94.2789,168.327 94.9455,166.493 93.5,164C 94.8333,164 96.1667,164 97.5,164C 100.667,160.833 103.833,157.667 107,154.5C 107.667,153.5 107.667,152.5 107,151.5C 105.167,149.667 103.333,147.833 101.5,146C 102.167,145.333 102.833,145.333 103.5,146C 105.35,148.018 107.35,149.851 109.5,151.5C 113.151,148.349 116.651,145.016 120,141.5C 120.667,140.5 120.667,139.5 120,138.5C 116.741,135.945 114.407,132.945 113,129.5C 116.015,132.683 119.182,135.683 122.5,138.5C 126.157,134.541 129.824,130.541 133.5,126.5C 130.683,123.182 127.683,120.015 124.5,117C 125.167,116.333 125.833,116.333 126.5,117C 129.349,120.016 132.349,122.85 135.5,125.5C 139.699,122.136 143.365,118.302 146.5,114C 144.72,111.216 142.553,108.716 140,106.5C 139.333,105.833 139.333,105.167 140,104.5C 142.766,107.777 145.933,110.443 149.5,112.5C 152.462,109.036 155.629,105.703 159,102.5C 159.63,100.097 158.797,98.2633 156.5,97C 158.417,97.0275 160.084,97.8608 161.5,99.5C 164.5,96.8333 167.5,94.1667 170.5,91.5C 168.736,94.822 166.07,97.9887 162.5,101C 166.428,105.436 170.761,109.269 175.5,112.5C 178.963,108.536 182.63,104.702 186.5,101C 183.333,97.8333 180.167,94.6667 177,91.5C 176.333,90.8333 176.333,90.1667 177,89.5C 180.036,92.7044 183.203,95.7044 186.5,98.5 Z"/></g>
<g><path style="opacity:1" fill="#040404" d="M 134.5,229.5 C 131.437,225.434 127.771,222.101 123.5,219.5C 126.563,214.928 130.23,210.761 134.5,207C 139.327,209.482 143.327,213.149 146.5,218C 143.282,222.72 139.282,226.553 134.5,229.5 Z"/></g>
<g><path style="opacity:1" fill="#080808" d="M 108.5,206.5 C 112.812,210.146 116.812,214.146 120.5,218.5C 117.136,222.699 113.302,226.365 109,229.5C 104.698,226.365 100.864,222.699 97.5,218.5C 101.189,214.48 104.855,210.48 108.5,206.5 Z"/></g>
<g><path style="opacity:1" fill="#0a0a0a" d="M 121.5,193.5 C 126.29,196.789 130.624,200.622 134.5,205C 130.622,209.214 126.455,213.048 122,216.5C 117.698,213.365 113.864,209.699 110.5,205.5C 114.189,201.48 117.855,197.48 121.5,193.5 Z"/></g>
<g><path style="opacity:1" fill="#040404" d="M 134.5,180.5 C 139.239,183.731 143.572,187.564 147.5,192C 143.652,196.016 139.652,199.849 135.5,203.5C 131.348,199.849 127.348,196.016 123.5,192C 127.37,188.298 131.037,184.464 134.5,180.5 Z"/></g>
<g><path style="opacity:1" fill="#090909" d="M 108.5,180.5 C 113.282,183.447 117.282,187.28 120.5,192C 117.333,196.5 113.5,200.333 109,203.5C 105.233,199.733 101.4,195.9 97.5,192C 101.37,188.298 105.037,184.464 108.5,180.5 Z"/></g>
<g><path style="opacity:1" fill="#050505" d="M 147.5,167.5 C 152.239,170.731 156.572,174.564 160.5,179C 156.652,183.016 152.652,186.849 148.5,190.5C 144.348,186.849 140.348,183.016 136.5,179C 140.37,175.298 144.037,171.464 147.5,167.5 Z"/></g>
<g><path style="opacity:1" fill="#080808" d="M 121.5,167.5 C 126.239,170.731 130.572,174.564 134.5,179C 130.652,183.016 126.652,186.849 122.5,190.5C 118.348,186.849 114.348,183.016 110.5,179C 114.37,175.298 118.037,171.464 121.5,167.5 Z"/></g>
<g><path style="opacity:1" fill="#040404" d="M 134.5,154.5 C 139.239,157.731 143.572,161.564 147.5,166C 143.652,170.016 139.652,173.849 135.5,177.5C 131.348,173.849 127.348,170.016 123.5,166C 127.37,162.298 131.037,158.464 134.5,154.5 Z"/></g>
<g><path style="opacity:1" fill="#080808" d="M 108.5,154.5 C 113.282,157.447 117.282,161.28 120.5,166C 117.365,170.302 113.699,174.136 109.5,177.5C 105.348,173.849 101.348,170.016 97.5,166C 101.37,162.298 105.037,158.464 108.5,154.5 Z"/></g>
<g><path style="opacity:1" fill="#050505" d="M 147.5,141.5 C 152.239,144.731 156.572,148.564 160.5,153C 156.652,157.016 152.652,160.849 148.5,164.5C 144.348,160.849 140.348,157.016 136.5,153C 140.37,149.298 144.037,145.464 147.5,141.5 Z"/></g>
<g><path style="opacity:1" fill="#080808" d="M 121.5,141.5 C 126.239,144.731 130.572,148.564 134.5,153C 130.652,157.016 126.652,160.849 122.5,164.5C 118.348,160.849 114.348,157.016 110.5,153C 114.37,149.298 118.037,145.464 121.5,141.5 Z"/></g>
<g><path style="opacity:1" fill="#040404" d="M 160.5,128.5 C 165.282,131.447 169.282,135.28 172.5,140C 169.365,144.302 165.699,148.136 161.5,151.5C 157.348,147.849 153.348,144.016 149.5,140C 153.37,136.298 157.037,132.464 160.5,128.5 Z"/></g>
<g><path style="opacity:1" fill="#060606" d="M 133.5,128.5 C 134.552,128.351 135.552,128.517 136.5,129C 140.167,132.667 143.833,136.333 147.5,140C 143.652,144.016 139.652,147.849 135.5,151.5C 131.348,147.849 127.348,144.016 123.5,140C 126.959,136.229 130.292,132.395 133.5,128.5 Z"/></g>
<g><path style="opacity:1" fill="#060606" d="M 147.5,115.5 C 152.239,118.731 156.572,122.564 160.5,127C 156.652,131.016 152.652,134.849 148.5,138.5C 144.348,134.849 140.348,131.016 136.5,127C 140.37,123.298 144.037,119.464 147.5,115.5 Z"/></g>
<g><path style="opacity:1" fill="#070707" d="M 175.5,112.5 C 179.753,109.59 183.753,106.256 187.5,102.5C 191.699,105.864 195.365,109.698 198.5,114C 195.627,118.374 191.961,121.874 187.5,124.5C 182.486,121.486 178.486,117.486 175.5,112.5 Z"/></g>
<g><path style="opacity:1" fill="#080808" d="M 149.5,112.5 C 153.753,109.59 157.753,106.256 161.5,102.5C 165.699,105.864 169.365,109.698 172.5,114C 169.365,118.302 165.699,122.136 161.5,125.5C 156.748,121.753 152.748,117.419 149.5,112.5 Z"/></g>
<g><path style="opacity:1" fill="#080808" d="M 123.5,219.5 C 126.101,223.771 129.434,227.437 133.5,230.5C 133.938,230.435 134.272,230.601 134.5,231C 130.622,235.214 126.455,239.048 122,242.5C 117.149,239.327 113.482,235.327 111,230.5C 114.761,226.23 118.928,222.563 123.5,219.5 Z"/></g>
<g><path style="opacity:1" fill="#8c8c8c" d="M 123.5,219.5 C 127.771,222.101 131.437,225.434 134.5,229.5C 133.833,229.5 133.5,229.833 133.5,230.5C 129.434,227.437 126.101,223.771 123.5,219.5 Z"/></g>
<g><path style="opacity:1" fill="#070707" d="M 279.5,219.5 C 283.145,223.48 286.811,227.48 290.5,231.5C 287.145,235.187 283.811,238.853 280.5,242.5C 275.332,240.014 270.999,236.347 267.5,231.5C 271.188,227.146 275.188,223.146 279.5,219.5 Z"/></g>
<g><path style="opacity:1" fill="#070707" d="M 108.5,232.5 C 112.812,236.146 116.812,240.146 120.5,244.5C 117.136,248.699 113.302,252.365 109,255.5C 104.698,252.365 100.864,248.699 97.5,244.5C 101.189,240.48 104.855,236.48 108.5,232.5 Z"/></g>
<g><path style="opacity:1" fill="#060606" d="M 121.5,245.5 C 125.665,249.497 129.998,253.33 134.5,257C 130.333,261.167 126.167,265.333 122,269.5C 117.984,265.652 114.151,261.652 110.5,257.5C 114.189,253.48 117.855,249.48 121.5,245.5 Z"/></g>
<g><path style="opacity:1" fill="#060606" d="M 278.5,245.5 C 282.812,249.146 286.812,253.146 290.5,257.5C 286.849,261.652 283.016,265.652 279,269.5C 274.984,265.652 271.151,261.652 267.5,257.5C 271.189,253.48 274.855,249.48 278.5,245.5 Z"/></g>
<g><path style="opacity:1" fill="#c4c4c4" d="M 227.5,269.5 C 227.5,270.167 227.5,270.833 227.5,271.5C 227.167,271.5 226.833,271.5 226.5,271.5C 226.167,271.5 225.833,271.5 225.5,271.5C 222.252,266.581 218.252,262.247 213.5,258.5C 210.479,260.854 207.812,263.521 205.5,266.5C 205.167,266.5 204.833,266.5 204.5,266.5C 206.557,262.933 209.223,259.766 212.5,257C 208.833,253.333 205.167,249.667 201.5,246C 196.512,248.805 192.178,252.638 188.5,257.5C 188.5,257.833 188.5,258.167 188.5,258.5C 183.167,261.833 178.833,266.167 175.5,271.5C 170.895,274.436 166.895,278.102 163.5,282.5C 162.833,282.5 162.5,282.167 162.5,281.5C 165.462,278.036 168.629,274.703 172,271.5C 172.483,270.552 172.649,269.552 172.5,268.5C 173.552,268.649 174.552,268.483 175.5,268C 179.167,264.333 182.833,260.667 186.5,257C 177.142,248.016 177.476,247.516 187.5,255.5C 191.652,251.849 195.652,248.016 199.5,244C 195.477,240.347 195.811,239.847 200.5,242.5C 205.189,239.847 205.523,240.347 201.5,244C 205.348,248.016 209.348,251.849 213.5,255.5C 216.317,253.183 218.984,250.683 221.5,248C 222.167,247.333 222.833,247.333 223.5,248C 220.5,251 217.5,254 214.5,257C 218.702,261.37 223.036,265.537 227.5,269.5 Z"/></g>
<g><path style="opacity:1" fill="#040404" d="M 204.5,266.5 C 203.162,268.113 201.495,268.613 199.5,268C 195.964,264.296 192.298,260.796 188.5,257.5C 192.178,252.638 196.512,248.805 201.5,246C 205.167,249.667 208.833,253.333 212.5,257C 209.223,259.766 206.557,262.933 204.5,266.5 Z"/></g>
<g><path style="opacity:1" fill="#040404" d="M 188.5,258.5 C 191.831,262 194.998,265.666 198,269.5C 195.554,274.133 192.054,278.133 187.5,281.5C 183.753,277.744 179.753,274.41 175.5,271.5C 178.833,266.167 183.167,261.833 188.5,258.5 Z"/></g>
<g><path style="opacity:1" fill="#090909" d="M 225.5,271.5 C 221.823,275.011 217.989,278.344 214,281.5C 210.046,278.549 206.379,275.216 203,271.5C 203.058,269.565 203.891,267.898 205.5,266.5C 207.812,263.521 210.479,260.854 213.5,258.5C 218.252,262.247 222.252,266.581 225.5,271.5 Z"/></g>
<g><path style="opacity:1" fill="#030303" d="M 175.5,271.5 C 178.41,275.753 181.744,279.753 185.5,283.5C 182.133,288.054 178.133,291.554 173.5,294C 169.561,290.571 166.228,286.737 163.5,282.5C 166.895,278.102 170.895,274.436 175.5,271.5 Z"/></g>
<g><path style="opacity:1" fill="#a2a2a2" d="M 188.5,257.5 C 192.298,260.796 195.964,264.296 199.5,268C 201.495,268.613 203.162,268.113 204.5,266.5C 204.833,266.5 205.167,266.5 205.5,266.5C 203.891,267.898 203.058,269.565 203,271.5C 206.379,275.216 210.046,278.549 214,281.5C 217.989,278.344 221.823,275.011 225.5,271.5C 225.833,271.5 226.167,271.5 226.5,271.5C 222.855,275.48 219.189,279.48 215.5,283.5C 219.151,287.652 222.984,291.652 227,295.5C 231.09,291.917 234.59,287.917 237.5,283.5C 234.552,279.215 231.219,275.215 227.5,271.5C 227.5,270.833 227.5,270.167 227.5,269.5C 227.783,268.711 228.283,268.044 229,267.5C 229,268.833 229,270.167 229,271.5C 232.667,275.167 236.333,278.833 240,282.5C 241.74,280.046 243.907,278.546 246.5,278C 244.649,279.684 242.982,281.517 241.5,283.5C 245.151,287.652 248.984,291.652 253,295.5C 256.702,291.63 260.536,287.963 264.5,284.5C 264.833,284.5 265.167,284.5 265.5,284.5C 259.416,291.607 253.083,297.607 246.5,302.5C 246.167,302.333 245.833,302.167 245.5,302C 247.976,300.691 249.976,298.858 251.5,296.5C 247.849,292.348 244.016,288.348 240,284.5C 235.984,288.348 232.151,292.348 228.5,296.5C 230.817,299.317 233.317,301.984 236,304.5C 236.667,305.167 236.667,305.833 236,306.5C 233,303.5 230,300.5 227,297.5C 221.569,303.293 216.236,308.293 211,312.5C 211.195,310.874 211.195,309.207 211,307.5C 207.651,303.984 204.151,300.651 200.5,297.5C 196.849,300.651 193.349,303.984 190,307.5C 190.046,309.313 189.88,310.979 189.5,312.5C 187.885,311.846 186.218,311.346 184.5,311C 185.451,310.282 185.617,309.449 185,308.5C 181.227,305.236 178.06,301.57 175.5,297.5C 171.581,300.075 167.915,303.075 164.5,306.5C 164.167,306.333 163.833,306.167 163.5,306C 166.683,302.985 169.683,299.818 172.5,296.5C 169.349,292.849 166.016,289.349 162.5,286C 161.5,285.333 160.5,285.333 159.5,286C 155.984,289.349 152.651,292.849 149.5,296.5C 151.167,298.833 153.167,300.833 155.5,302.5C 155.167,302.833 154.833,303.167 154.5,303.5C 152.183,301.684 150.016,299.684 148,297.5C 147.333,298.167 146.667,298.833 146,299.5C 146,298.167 146,296.833 146,295.5C 142.571,291.561 138.737,288.228 134.5,285.5C 134.842,284.662 135.508,284.328 136.5,284.5C 140.753,287.41 144.753,290.744 148.5,294.5C 152.5,291.167 156.167,287.5 159.5,283.5C 158.185,281.684 156.685,280.017 155,278.5C 154.312,277.668 154.479,277.002 155.5,276.5C 157.592,278.605 159.925,280.272 162.5,281.5C 162.5,282.167 162.833,282.5 163.5,282.5C 166.228,286.737 169.561,290.571 173.5,294C 178.133,291.554 182.133,288.054 185.5,283.5C 181.744,279.753 178.41,275.753 175.5,271.5C 179.753,274.41 183.753,277.744 187.5,281.5C 192.054,278.133 195.554,274.133 198,269.5C 194.998,265.666 191.831,262 188.5,258.5C 188.5,258.167 188.5,257.833 188.5,257.5 Z"/></g>
<g><path style="opacity:1" fill="#070707" d="M 226.5,271.5 C 226.833,271.5 227.167,271.5 227.5,271.5C 231.219,275.215 234.552,279.215 237.5,283.5C 234.59,287.917 231.09,291.917 227,295.5C 222.984,291.652 219.151,287.652 215.5,283.5C 219.189,279.48 222.855,275.48 226.5,271.5 Z"/></g>
<g><path style="opacity:1" fill="#0b0b0b" d="M 212.5,284.5 C 208.823,288.011 204.989,291.344 201,294.5C 196.5,291.333 192.667,287.5 189.5,283C 192.635,278.698 196.301,274.864 200.5,271.5C 205.252,275.247 209.252,279.581 212.5,284.5 Z"/></g>
<g><path style="opacity:1" fill="#030303" d="M 175.5,297.5 C 178.447,292.718 182.28,288.718 187,285.5C 191.302,288.635 195.136,292.301 198.5,296.5C 195.167,300.5 191.5,304.167 187.5,307.5C 183.753,303.744 179.753,300.41 175.5,297.5 Z"/></g>
<g><path style="opacity:1" fill="#090909" d="M 212.5,284.5 C 217.419,287.748 221.753,291.748 225.5,296.5C 221.849,300.652 218.016,304.652 214,308.5C 209.984,304.652 206.151,300.652 202.5,296.5C 206.256,292.753 209.59,288.753 212.5,284.5 Z"/></g>
<g><path style="opacity:1" fill="#f4f4f4" d="M 278.5,296.5 C 286.808,294.459 292.974,297.126 297,304.5C 298.323,317.51 292.489,323.676 279.5,323C 271.695,319.219 268.862,313.053 271,304.5C 273.028,301.308 275.528,298.641 278.5,296.5 Z"/></g>
<g><path style="opacity:1" fill="#f2f2f2" d="M 124.5,302.5 C 126.824,303.33 128.824,304.663 130.5,306.5C 129.167,308.833 127.833,311.167 126.5,313.5C 128.267,315.89 130.6,317.557 133.5,318.5C 135.216,315.726 137.382,313.392 140,311.5C 141.795,312.295 143.295,313.462 144.5,315C 140.55,322.4 136.217,329.566 131.5,336.5C 129.5,335.167 127.5,333.833 125.5,332.5C 127.223,330.222 128.556,327.722 129.5,325C 127.644,322.819 125.477,320.985 123,319.5C 121.477,322.555 119.477,325.222 117,327.5C 115.099,326.464 113.265,325.298 111.5,324C 115.97,316.889 120.304,309.722 124.5,302.5 Z"/></g>
<g><path style="opacity:1" fill="#0e0e0e" d="M 281.5,302.5 C 288.142,302.64 290.976,305.973 290,312.5C 286.049,317.818 282.049,317.818 278,312.5C 276.581,308.082 277.748,304.749 281.5,302.5 Z"/></g>
<g><path style="opacity:1" fill="#f1f1f1" d="M 254.5,313.5 C 255.313,322.998 255.313,332.665 254.5,342.5C 252.09,343.063 249.757,343.563 247.5,344C 241.532,337.031 235.199,330.364 228.5,324C 232.387,320.6 236.053,320.767 239.5,324.5C 242.314,322.895 245.314,321.895 248.5,321.5C 248.34,319.801 248.506,318.134 249,316.5C 250.876,315.391 252.709,314.391 254.5,313.5 Z"/></g>
<g><path style="opacity:1" fill="#f2f2f2" d="M 164.5,321.5 C 166.861,321.674 169.194,322.007 171.5,322.5C 169.962,329.117 168.629,335.783 167.5,342.5C 170.059,342.39 172.392,343.056 174.5,344.5C 173.691,346.071 173.357,347.738 173.5,349.5C 166.168,347.834 158.835,346.167 151.5,344.5C 151.261,342.533 151.594,340.699 152.5,339C 155.157,338.825 157.824,338.992 160.5,339.5C 162.037,333.554 163.37,327.554 164.5,321.5 Z"/></g>
<g><path style="opacity:1" fill="#f6f6f6" d="M 201.5,325.5 C 207.328,324.497 212.161,326.164 216,330.5C 217.384,337.411 217.884,344.411 217.5,351.5C 215.167,351.5 212.833,351.5 210.5,351.5C 210.666,346.156 210.499,340.823 210,335.5C 208.334,332.621 205.834,331.788 202.5,333C 201.874,333.75 201.374,334.584 201,335.5C 201.132,341.14 201.299,346.807 201.5,352.5C 198.833,352.5 196.167,352.5 193.5,352.5C 193.334,345.825 193.5,339.158 194,332.5C 195.767,329.228 198.267,326.895 201.5,325.5 Z"/></g>
<g><path style="opacity:1" fill="#323232" d="M 245.5,327.5 C 246.5,327.5 247.5,327.5 248.5,327.5C 249.023,335.719 247.356,336.385 243.5,329.5C 244.243,328.818 244.909,328.151 245.5,327.5 Z"/></g>
</svg>
