<?xml version="1.0" encoding="UTF-8"?>
<!DOCTYPE svg PUBLIC "-//W3C//DTD SVG 1.1//EN" "http://www.w3.org/Graphics/SVG/1.1/DTD/svg11.dtd">
<svg xmlns="http://www.w3.org/2000/svg" version="1.1" width="200px" height="200px" style="shape-rendering:geometricPrecision; text-rendering:geometricPrecision; image-rendering:optimizeQuality; fill-rule:evenodd; clip-rule:evenodd" xmlns:xlink="http://www.w3.org/1999/xlink">
<g><path style="opacity:0.973" fill="#d6ff00" d="M 99.5,9.5 C 99.5,21.8333 99.5,34.1667 99.5,46.5C 77.7052,47.96 65.7052,59.6267 63.5,81.5C 51.5,81.5 39.5,81.5 27.5,81.5C 29.5573,43.255 49.2239,19.4217 86.5,10C 90.8206,9.50098 95.1539,9.33432 99.5,9.5 Z"/></g>
<g><path style="opacity:0.973" fill="#34e279" d="M 99.5,9.5 C 137.763,11.5628 161.596,31.2294 171,68.5C 171.369,72.8629 171.869,77.1962 172.5,81.5C 159.833,81.5 147.167,81.5 134.5,81.5C 133.148,59.4812 121.481,47.8145 99.5,46.5C 99.5,34.1667 99.5,21.8333 99.5,9.5 Z"/></g>
<g><path style="opacity:0.992" fill="#000000" d="M 27.5,81.5 C 39.5,81.5 51.5,81.5 63.5,81.5C 63.5,105.5 63.5,129.5 63.5,153.5C 75.5,153.5 87.5,153.5 99.5,153.5C 100.479,165.42 100.812,177.42 100.5,189.5C 76.1667,189.5 51.8333,189.5 27.5,189.5C 27.5,153.5 27.5,117.5 27.5,81.5 Z"/></g>
<g><path style="opacity:0.972" fill="#00b8f1" d="M 134.5,81.5 C 147.167,81.5 159.833,81.5 172.5,81.5C 169.664,117.161 151.331,140.661 117.5,152C 111.555,153.162 105.555,153.662 99.5,153.5C 99.5,141.167 99.5,128.833 99.5,116.5C 115.675,116.162 126.842,108.495 133,93.5C 134.266,89.6049 134.766,85.6049 134.5,81.5 Z"/></g>
</svg>
